<?xml version="1.0" standalone="no"?>
<!DOCTYPE svg PUBLIC "-//W3C//DTD SVG 20010904//EN"
 "http://www.w3.org/TR/2001/REC-SVG-20010904/DTD/svg10.dtd">
<svg version="1.0" xmlns="http://www.w3.org/2000/svg"
 width="581.000000pt" height="581.000000pt" viewBox="0 0 581.000000 581.000000"
 preserveAspectRatio="xMidYMid meet">
<metadata>
Created by potrace 1.14, written by Peter Selinger 2001-2017
</metadata>
<g transform="translate(0.000000,581.000000) scale(0.100000,-0.100000)"
fill="#000000" stroke="none">
<path d="M2639 4816 c-2 -3 -25 -8 -49 -11 -25 -4 -56 -8 -69 -10 -13 -2 -53
-11 -88 -21 -46 -12 -62 -21 -61 -33 2 -11 -9 -17 -43 -22 -26 -4 -57 -13 -70
-20 -13 -7 -27 -12 -31 -11 -5 1 -8 -4 -8 -10 0 -8 -5 -6 -10 4 -9 15 -13 15
-53 0 -23 -9 -45 -21 -49 -27 -4 -5 -8 -6 -8 -1 0 5 -7 3 -15 -4 -8 -7 -15 -9
-15 -6 0 4 -6 1 -13 -6 -15 -13 -18 -38 -5 -38 4 0 8 -4 8 -9 0 -10 -22 -19
-67 -27 -15 -3 -33 -10 -40 -16 -7 -6 -13 -7 -13 -2 0 4 -6 0 -13 -10 -10 -13
-22 -16 -45 -13 -18 3 -32 2 -32 -3 0 -4 -24 -23 -54 -41 -30 -19 -59 -42 -66
-53 -7 -11 -7 -16 -1 -12 7 4 8 1 5 -8 -6 -17 -47 -46 -65 -46 -15 0 -75 -51
-72 -62 2 -4 -4 -8 -12 -8 -17 0 -66 -45 -103 -94 -17 -23 -20 -31 -10 -38 10
-6 10 -8 1 -8 -7 0 -10 -6 -7 -13 3 -10 -4 -13 -26 -12 -16 1 -30 -1 -30 -4 0
-4 -20 -33 -45 -66 -25 -33 -45 -63 -45 -67 0 -4 7 -14 16 -22 8 -9 12 -16 8
-16 -4 0 0 -6 11 -13 17 -13 17 -14 -6 -22 -13 -4 -28 -7 -32 -6 -19 3 -75
-41 -81 -63 -3 -14 -14 -32 -24 -42 -9 -10 -17 -20 -18 -23 0 -3 -9 -23 -18
-45 -14 -30 -15 -41 -5 -50 9 -8 10 -8 5 1 -5 9 -2 11 10 6 15 -5 15 -7 0 -15
-9 -5 -14 -13 -11 -18 3 -5 1 -11 -5 -15 -6 -4 -8 -11 -5 -16 4 -5 -1 -9 -9
-9 -9 0 -16 -6 -16 -12 0 -9 -3 -9 -9 1 -7 11 -13 3 -22 -30 -7 -24 -15 -46
-19 -49 -3 -3 -6 -9 -6 -15 -1 -5 -5 -20 -9 -32 -4 -15 -2 -23 6 -23 7 0 9 -3
6 -6 -3 -4 -1 -16 5 -28 6 -11 7 -18 3 -14 -16 15 -43 -13 -53 -54 -21 -84
-23 -108 -7 -114 21 -8 19 -23 -5 -42 -11 -10 -22 -26 -24 -38 -13 -69 -4
-160 15 -148 5 3 6 -2 3 -10 -3 -9 -10 -16 -16 -16 -5 0 -7 -4 -3 -9 3 -5 1
-12 -5 -16 -13 -8 -13 -82 1 -90 6 -4 8 -13 5 -21 -3 -8 1 -14 9 -14 8 0 15
-5 15 -11 0 -5 -5 -7 -12 -3 -7 5 -8 3 -3 -6 4 -7 3 -15 -4 -19 -12 -8 -14
-36 -7 -98 4 -41 27 -79 40 -66 3 4 6 1 6 -5 0 -6 -7 -18 -15 -26 -15 -15 -15
-21 -1 -96 9 -47 21 -77 38 -92 16 -13 17 -21 9 -37 -8 -13 -8 -22 -1 -26 6
-4 8 -11 4 -16 -3 -5 2 -23 10 -41 9 -17 16 -39 16 -50 0 -16 10 -22 26 -15 3
1 12 -10 20 -25 8 -16 20 -28 26 -28 7 0 6 -5 -2 -15 -6 -8 -9 -19 -5 -25 3
-5 1 -10 -6 -10 -7 0 -6 -8 5 -25 9 -13 16 -31 16 -40 0 -9 6 -18 14 -21 7 -3
21 -23 31 -44 10 -22 30 -47 44 -57 14 -9 26 -15 26 -13 0 2 10 -2 22 -8 20
-11 21 -14 8 -38 -15 -29 -11 -47 16 -79 10 -11 19 -24 20 -30 3 -13 62 -74
69 -70 5 3 25 -16 28 -27 10 -33 21 -49 63 -90 26 -26 49 -44 52 -42 3 3 14
-6 25 -20 11 -15 25 -26 32 -26 6 0 9 -4 6 -8 -3 -5 0 -9 7 -10 7 0 21 -3 32
-6 11 -2 27 -5 35 -5 13 -1 13 -2 0 -11 -9 -6 -10 -10 -3 -10 6 0 10 -9 8 -20
-3 -13 0 -18 7 -14 8 5 9 1 4 -12 -4 -10 -4 -15 0 -11 4 3 25 -7 47 -23 23
-17 46 -30 53 -30 7 0 14 -5 16 -12 5 -14 38 -20 38 -6 0 5 12 1 28 -10 28
-20 92 -50 104 -48 3 1 10 -2 14 -6 4 -5 2 -8 -5 -8 -8 0 -7 -5 3 -16 9 -8 16
-20 16 -25 0 -5 9 -9 20 -9 11 0 20 -4 20 -8 0 -13 99 -45 125 -40 14 3 30 -1
36 -8 6 -8 15 -11 21 -8 5 3 15 0 23 -6 8 -7 23 -10 32 -8 18 4 56 -26 46 -36
-4 -3 3 -6 15 -6 12 0 22 -4 22 -8 0 -4 11 -9 26 -10 17 -1 23 2 19 11 -4 6
-1 5 7 -4 8 -10 26 -15 46 -14 20 1 36 -3 39 -11 2 -7 19 -12 36 -12 18 0 34
-1 37 -2 19 -7 47 -9 60 -3 24 9 60 9 60 0 0 -5 35 -6 78 -3 42 2 83 4 90 4
47 -1 161 -2 182 0 14 0 39 1 55 0 49 -2 99 5 113 15 6 5 12 6 12 1 0 -5 5 -2
10 6 6 10 10 11 10 3 0 -9 7 -10 26 -3 14 6 30 8 35 4 5 -3 9 0 9 5 0 6 3 10
8 9 4 -1 22 2 40 6 28 7 36 15 34 37 0 3 18 6 41 8 23 1 46 6 51 12 6 5 18 9
28 9 10 0 18 5 18 10 0 7 7 7 21 -1 14 -7 24 -8 28 -1 3 5 21 13 39 17 17 3
32 10 32 14 0 4 7 8 15 9 8 1 21 3 29 4 8 1 12 7 9 14 -2 7 5 18 17 24 12 6
19 14 16 17 -9 9 33 35 44 28 6 -3 10 -1 10 4 0 6 6 11 14 11 7 0 19 7 27 16
8 10 22 14 38 11 27 -6 91 26 91 44 0 6 3 8 8 6 4 -3 23 9 42 25 19 17 29 27
22 23 -11 -6 -11 -3 0 16 17 31 40 49 55 44 6 -2 14 3 17 12 4 9 9 13 12 10 9
-9 54 35 47 46 -3 6 -1 7 6 3 6 -4 23 2 37 13 15 12 24 21 20 21 -3 0 12 18
34 40 23 23 38 45 35 50 -4 6 -1 10 5 10 6 0 9 3 7 8 -3 4 1 13 9 20 8 7 14
10 14 7 0 -7 40 33 42 43 0 4 8 13 17 20 9 8 10 10 2 6 -9 -5 -12 -3 -7 4 4 7
14 12 22 12 8 0 12 5 9 10 -3 6 1 10 10 10 13 0 14 4 4 21 -8 15 -8 19 0 15
11 -7 13 -2 14 46 1 15 4 25 8 22 12 -7 95 83 85 93 -3 3 6 17 20 31 13 15 24
35 24 44 0 10 5 18 12 18 6 0 8 3 5 6 -3 4 -1 16 5 27 8 16 8 19 -4 14 -9 -3
-14 1 -13 11 2 31 26 62 46 62 12 0 17 4 13 11 -3 6 -2 14 3 18 13 9 44 111
37 122 -7 12 5 51 15 45 4 -3 8 0 8 7 1 7 9 39 18 72 9 33 14 72 11 88 -3 16
-1 27 5 27 7 0 6 6 -2 17 -10 11 -10 14 -1 9 8 -5 12 -1 13 11 0 10 2 27 4 37
4 22 7 82 6 109 -1 10 -5 16 -10 12 -10 -6 -5 41 7 59 11 18 11 80 0 93 -6 7
-7 13 -3 13 4 0 3 6 -4 13 -7 9 -7 17 0 24 16 16 14 173 -4 173 -5 0 -7 6 -4
14 3 8 -2 17 -11 21 -13 5 -14 8 -4 14 11 6 11 19 3 62 -26 126 -28 132 -39
125 -4 -2 -8 10 -9 27 -1 37 -6 68 -14 82 -4 6 -9 22 -13 38 -3 15 -11 27 -17
27 -6 0 -7 5 -4 10 6 9 -8 14 -27 11 -7 -1 -10 8 -7 25 0 4 -5 11 -13 15 -11
7 -10 11 2 19 13 8 13 10 1 10 -11 0 -9 4 5 15 12 10 14 14 4 13 -8 -2 -14 2
-15 7 -1 21 -28 75 -37 75 -5 0 -6 5 -3 10 3 6 -1 10 -10 10 -10 0 -13 5 -9
12 4 6 -1 17 -11 25 -11 7 -15 13 -10 13 4 0 -5 11 -21 25 -16 14 -32 25 -35
25 -10 0 -18 39 -8 42 8 3 -17 63 -36 85 -5 6 -21 25 -34 42 -13 17 -29 31
-37 31 -7 0 -18 9 -24 20 -6 11 -16 18 -22 14 -7 -5 -8 -1 0 11 8 15 0 28 -45
73 -29 30 -56 52 -60 49 -3 -3 -17 8 -30 24 -28 32 -77 62 -87 52 -3 -4 -6 -2
-6 4 0 6 -9 13 -21 16 -17 5 -19 9 -9 26 6 12 7 21 3 21 -5 0 -19 10 -33 23
-14 12 -44 35 -68 50 -37 24 -46 26 -60 15 -13 -11 -14 -11 -7 2 8 13 7 13 -8
1 -11 -8 -17 -9 -17 -2 0 13 -39 39 -65 44 -11 1 -25 6 -32 10 -6 4 -14 1 -16
-5 -3 -8 -6 -6 -6 5 -1 11 -6 15 -12 11 -8 -4 -8 -1 -1 13 14 26 6 34 -58 62
-30 13 -62 27 -70 31 -8 4 -22 2 -31 -3 -13 -8 -21 -6 -33 6 -9 9 -33 19 -54
22 -70 11 -83 16 -77 25 7 11 -29 32 -39 23 -3 -3 -6 -2 -6 4 0 5 -6 10 -12
10 -18 1 -71 11 -156 29 -60 13 -78 14 -103 4 -24 -10 -35 -10 -53 0 -15 8
-44 10 -82 6 -76 -8 -89 -8 -148 0 -30 4 -64 1 -88 -7 -29 -9 -41 -10 -50 -1
-12 12 -50 16 -59 8z m1851 -1131 c0 -12 -19 -12 -23 0 -4 9 -1 12 9 8 7 -3
14 -7 14 -8z m-1892 -2526 c8 -12 9 -18 3 -15 -5 4 -19 -3 -29 -15 -14 -14
-22 -17 -27 -9 -6 9 -9 9 -15 1 -3 -7 -14 -9 -23 -5 -9 3 -14 10 -11 15 3 5 0
9 -5 9 -6 0 -11 -5 -11 -11 0 -6 -7 -4 -15 5 -22 21 -19 23 25 20 22 -1 40 1
40 6 0 5 10 11 23 13 12 2 24 5 27 6 3 0 11 -8 18 -20z"/>
</g>
</svg>
